<?xml version="1.0" encoding="UTF-8" standalone="no"?>
<svg
   xmlns:dc="http://purl.org/dc/elements/1.1/"
   xmlns:cc="http://creativecommons.org/ns#"
   xmlns:rdf="http://www.w3.org/1999/02/22-rdf-syntax-ns#"
   xmlns:svg="http://www.w3.org/2000/svg"
   xmlns="http://www.w3.org/2000/svg"
   xmlns:sodipodi="http://sodipodi.sourceforge.net/DTD/sodipodi-0.dtd"
   xmlns:inkscape="http://www.inkscape.org/namespaces/inkscape"
   width="1686.7802"
   height="613.76721"
   viewBox="180 -20 952.0937 346.43751"
   id="svg4222"
   version="1.1"
   inkscape:version="0.48.3.1 r9886"
   sodipodi:docname="Diagram3.svg">
  <metadata
     id="metadata4324">
    <rdf:RDF>
      <cc:Work
         rdf:about="">
        <dc:format>image/svg+xml</dc:format>
        <dc:type
           rdf:resource="http://purl.org/dc/dcmitype/StillImage" />
      </cc:Work>
    </rdf:RDF>
  </metadata>
  <defs
     id="defs4322" />
  <sodipodi:namedview
     pagecolor="#ffffff"
     bordercolor="#666666"
     borderopacity="1"
     objecttolerance="10"
     gridtolerance="10"
     guidetolerance="10"
     inkscape:pageopacity="0"
     inkscape:pageshadow="2"
     inkscape:window-width="1920"
     inkscape:window-height="1027"
     id="namedview4320"
     showgrid="false"
     inkscape:zoom="0.57875767"
     inkscape:cx="955.10844"
     inkscape:cy="362.86306"
     inkscape:window-x="0"
     inkscape:window-y="1024"
     inkscape:window-maximized="1"
     inkscape:current-layer="layer6"
     fit-margin-top="0"
     fit-margin-left="0"
     fit-margin-right="0"
     fit-margin-bottom="0" />
  <g
     inkscape:groupmode="layer"
     id="layer4"
     inkscape:label="all"
     style="display:inline"
     transform="translate(22.218737,20.625)">
    <g
       transform="translate(0,1.5323786e-6)"
       id="g4224">
      <rect
         style="fill:#67edff"
         x="180"
         y="-20"
         width="160"
         height="300"
         id="rect4226" />
      <rect
         style="fill:none;stroke:#67edff;stroke-width:0.02"
         x="180"
         y="-20"
         width="160"
         height="300"
         id="rect4228" />
    </g>
    <g
       transform="translate(0,1.5323786e-6)"
       id="g4230">
      <rect
         style="fill:#67edff"
         x="840"
         y="-20"
         width="240"
         height="300"
         id="rect4232" />
      <rect
         style="fill:none;stroke:#67edff;stroke-width:0.02"
         x="840"
         y="-20"
         width="240"
         height="300"
         id="rect4234" />
    </g>
    <g
       transform="translate(0,1.5323786e-6)"
       id="g4236">
      <rect
         style="fill:#67edff"
         x="440"
         y="-20"
         width="220"
         height="300"
         id="rect4238" />
      <rect
         style="fill:none;stroke:#67edff;stroke-width:0.02"
         x="440"
         y="-20"
         width="220"
         height="300"
         id="rect4240" />
    </g>
    <g
       transform="translate(0,1.5323786e-6)"
       id="g4242">
      <polygon
         style="fill:#ffffff"
         points="660,125 660,95 750,95 750,80 840,110 750,140 750,125 "
         id="polygon4244" />
      <polygon
         style="fill:none;stroke:#000000;stroke-width:2"
         points="660,125 660,95 750,95 750,80 840,110 750,140 750,125 "
         id="polygon4246" />
      <polygon
         style="fill:none;stroke:#000000;stroke-width:2"
         points="660,125 660,95 750,95 750,80 840,110 750,140 750,125 "
         id="polygon4248" />
    </g>
    <g
       transform="translate(0,1.5323786e-6)"
       id="g4250">
      <polygon
         style="fill:#ffffff"
         points="340,125 340,95 390,95 390,80 440,110 390,140 390,125 "
         id="polygon4252" />
      <polygon
         style="fill:none;stroke:#000000;stroke-width:2"
         points="340,125 340,95 390,95 390,80 440,110 390,140 390,125 "
         id="polygon4254" />
      <polygon
         style="fill:none;stroke:#000000;stroke-width:2"
         points="340,125 340,95 390,95 390,80 440,110 390,140 390,125 "
         id="polygon4256" />
    </g>
    <g
       transform="translate(0,1.5323786e-6)"
       id="g4258">
      <polygon
         style="fill:#ffffff"
         points="440,245 440,215 390,215 390,200 340,230 390,260 390,245 "
         id="polygon4260" />
      <polygon
         style="fill:none;stroke:#000000;stroke-width:2"
         points="440,245 440,215 390,215 390,200 340,230 390,260 390,245 "
         id="polygon4262" />
      <polygon
         style="fill:none;stroke:#000000;stroke-width:2"
         points="440,245 440,215 390,215 390,200 340,230 390,260 390,245 "
         id="polygon4264" />
    </g>
    <g
       transform="translate(0,1.5323786e-6)"
       id="g4266">
      <rect
         style="fill:#ffffff"
         x="200"
         y="60"
         width="120"
         height="200"
         id="rect4268" />
      <rect
         style="fill:none;stroke:#000000;stroke-width:2"
         x="200"
         y="60"
         width="120"
         height="200"
         id="rect4270" />
    </g>
    <g
       transform="translate(0,1.5323786e-6)"
       id="g4272">
      <rect
         style="fill:#ffffff"
         x="860"
         y="60"
         width="200"
         height="120"
         id="rect4274" />
      <rect
         style="fill:none;stroke:#000000;stroke-width:2"
         x="860"
         y="60"
         width="200"
         height="120"
         id="rect4276" />
    </g>
    <g
       transform="translate(0,1.5323786e-6)"
       id="g4278">
      <rect
         style="fill:#ffffff"
         x="460"
         y="200"
         width="180"
         height="60"
         id="rect4280" />
      <rect
         style="fill:none;stroke:#000000;stroke-width:2"
         x="460"
         y="200"
         width="180"
         height="60"
         id="rect4282" />
    </g>
    <g
       transform="translate(0,1.5323786e-6)"
       id="g4284">
      <rect
         style="fill:#ffffff"
         x="460"
         y="60"
         width="180"
         height="120"
         id="rect4286" />
      <rect
         style="fill:none;stroke:#000000;stroke-width:2"
         x="460"
         y="60"
         width="180"
         height="120"
         id="rect4288" />
      <text
         font-size="12.8"
         style="font-size:12.80000019px;font-style:normal;font-weight:normal;text-anchor:middle;fill:#000000;font-family:sans-serif"
         x="550"
         y="123.9"
         id="text4290">
        <tspan
           x="550"
           y="123.9"
           id="tspan4292" />
      </text>
    </g>
    <g
       transform="translate(0,1.5323786e-6)"
       id="g4294">
      <polygon
         style="fill:#ffffff"
         points="840,245 840,215 750,215 750,200 660,230 750,260 750,245 "
         id="polygon4296" />
      <polygon
         style="fill:none;stroke:#000000;stroke-width:2"
         points="840,245 840,215 750,215 750,200 660,230 750,260 750,245 "
         id="polygon4298" />
      <polygon
         style="fill:none;stroke:#000000;stroke-width:2"
         points="840,245 840,215 750,215 750,200 660,230 750,260 750,245 "
         id="polygon4300" />
    </g>
    <g
       transform="translate(0,1.5323786e-6)"
       id="g4302">
      <rect
         style="fill:#ffffff"
         x="860"
         y="200"
         width="200"
         height="60"
         id="rect4304" />
      <rect
         style="fill:none;stroke:#000000;stroke-width:2"
         x="860"
         y="200"
         width="200"
         height="60"
         id="rect4306" />
    </g>
    <g
       transform="translate(0,1.5323786e-6)"
       id="g4308">
      <polygon
         style="fill:#ffffff"
         points="300,129.25 300,211.25 218,211.25 218,108.75 279.5,108.75 "
         id="polygon4310" />
      <polygon
         style="fill:none;stroke:#000000;stroke-width:2"
         points="300,129.25 300,211.25 218,211.25 218,108.75 279.5,108.75 "
         id="polygon4312" />
      <polyline
         style="fill:none;stroke:#000000;stroke-width:2"
         points="279.5,108.75 279.5,129.25 300,129.25 300,129.25 "
         id="polyline4314" />
    </g>
  </g>
  <text
     font-size="12.8"
     style="font-size:12.80000019px;font-style:normal;font-weight:normal;text-anchor:start;fill:#000000;font-family:sans-serif"
     x="982.21875"
     y="250.625"
     id="text4316">
    <tspan
       x="982.21875"
       y="250.625"
       id="tspan4318" />
  </text>
  <g
     inkscape:groupmode="layer"
     id="layer3"
     inkscape:label="Text"
     style="display:inline"
     transform="translate(22.218737,20.625)">
    <text
       xml:space="preserve"
       style="font-size:20.3200016px;font-style:normal;font-weight:bold;text-align:center;line-height:125%;letter-spacing:0px;word-spacing:0px;text-anchor:middle;fill:#000000;fill-opacity:1;stroke:none;display:inline;font-family:Sans;-inkscape-font-specification:Sans Bold"
       x="259.69913"
       y="19.745413"
       id="text3165"
       sodipodi:linespacing="125%"><tspan
         sodipodi:role="line"
         id="tspan3167"
         x="259.69913"
         y="19.745413">Zielsystem</tspan></text>
    <text
       xml:space="preserve"
       style="font-size:20.3200016px;font-style:normal;font-weight:bold;text-align:center;line-height:125%;letter-spacing:0px;word-spacing:0px;text-anchor:middle;fill:#000000;fill-opacity:1;stroke:none;display:inline;font-family:Sans;-inkscape-font-specification:Sans Bold"
       x="549.4165"
       y="19.745415"
       id="text3165-1"
       sodipodi:linespacing="125%"><tspan
         sodipodi:role="line"
         id="tspan3167-0"
         x="549.4165"
         y="19.745415">Carambola</tspan></text>
    <text
       xml:space="preserve"
       style="font-size:20.3200016px;font-style:normal;font-weight:bold;text-align:center;line-height:125%;letter-spacing:0px;word-spacing:0px;text-anchor:middle;fill:#000000;fill-opacity:1;stroke:none;display:inline;font-family:Sans;-inkscape-font-specification:Sans Bold"
       x="956.98499"
       y="19.745415"
       id="text3165-14"
       sodipodi:linespacing="125%"><tspan
         sodipodi:role="line"
         id="tspan3167-01"
         x="956.98499"
         y="19.745415">Entwicklersystem</tspan></text>
    <text
       xml:space="preserve"
       style="font-size:15.24000072px;font-style:normal;font-weight:normal;text-align:center;line-height:125%;letter-spacing:0px;word-spacing:0px;text-anchor:middle;fill:#000000;fill-opacity:1;stroke:none;display:inline;font-family:Sans"
       x="258.46622"
       y="162.14883"
       id="text3233"
       sodipodi:linespacing="125%"><tspan
         sodipodi:role="line"
         id="tspan3235"
         x="258.46622"
         y="162.14883">Firmware</tspan></text>
    <text
       xml:space="preserve"
       style="font-size:15.24000072px;font-style:normal;font-weight:normal;text-align:center;line-height:125%;letter-spacing:0px;word-spacing:0px;text-anchor:middle;fill:#000000;fill-opacity:1;stroke:none;display:inline;font-family:Sans"
       x="531.23425"
       y="231.87683"
       id="text3233-9"
       sodipodi:linespacing="125%"><tspan
         sodipodi:role="line"
         id="tspan3235-3"
         x="531.23425"
         y="231.87683">OpenOCD</tspan></text>
    <text
       xml:space="preserve"
       style="font-size:15.24000072px;font-style:normal;font-weight:normal;text-align:center;line-height:125%;letter-spacing:0px;word-spacing:0px;text-anchor:middle;fill:#000000;fill-opacity:1;stroke:none;display:inline;font-family:Sans"
       x="414.36517"
       y="234.82312"
       id="text3233-7"
       sodipodi:linespacing="125%"><tspan
         sodipodi:role="line"
         id="tspan3235-4"
         x="414.36517"
         y="234.82312">JTAG</tspan></text>
    <text
       xml:space="preserve"
       style="font-size:15.24000072px;font-style:normal;font-weight:normal;text-align:center;line-height:125%;letter-spacing:0px;word-spacing:0px;text-anchor:middle;fill:#000000;fill-opacity:1;stroke:none;display:inline;font-family:Sans"
       x="812.11279"
       y="235.80521"
       id="text3233-09"
       sodipodi:linespacing="125%"><tspan
         sodipodi:role="line"
         id="tspan3235-48"
         x="812.11279"
         y="235.80521">GDB</tspan></text>
    <text
       xml:space="preserve"
       style="font-size:15.24000072px;font-style:normal;font-weight:normal;text-align:center;line-height:125%;letter-spacing:0px;word-spacing:0px;text-anchor:middle;fill:#000000;fill-opacity:1;stroke:none;display:inline;font-family:Sans"
       x="956.48035"
       y="238.75148"
       id="text3233-8"
       sodipodi:linespacing="125%"><tspan
         sodipodi:role="line"
         id="tspan3235-35"
         x="956.48035"
         y="238.75148">IDE</tspan></text>
  </g>
  <g
     inkscape:groupmode="layer"
     id="layer6"
     inkscape:label="grey"
     style="display:inline"
     transform="translate(22.218737,20.625)">
    <path
       style="opacity:0.4;fill:#000000;fill-opacity:1;stroke:#000000;stroke-width:0.92043233;stroke-linejoin:miter;stroke-miterlimit:4;stroke-opacity:1;stroke-dashoffset:0;display:inline"
       d="m 158.2276,-40.160593 0,345.513813 951.1823,0 0,-345.513813 z m 180.90899,231.899143 750.44911,0 0,96.70589 -750.44911,0 z"
       id="rect5767"
       inkscape:connector-curvature="0"
       sodipodi:nodetypes="cccccccccc" />
  </g>
</svg>
