<?xml version="1.0" encoding="UTF-8" standalone="no"?>
<svg
   xmlns:dc="http://purl.org/dc/elements/1.1/"
   xmlns:cc="http://creativecommons.org/ns#"
   xmlns:rdf="http://www.w3.org/1999/02/22-rdf-syntax-ns#"
   xmlns:svg="http://www.w3.org/2000/svg"
   xmlns="http://www.w3.org/2000/svg"
   xmlns:sodipodi="http://sodipodi.sourceforge.net/DTD/sodipodi-0.dtd"
   xmlns:inkscape="http://www.inkscape.org/namespaces/inkscape"
   width="1686.7961"
   height="613.76141"
   viewBox="180 -20 952.10273 346.43424"
   id="svg2"
   version="1.1"
   inkscape:version="0.48.3.1 r9886"
   sodipodi:docname="Diagram6.svg">
  <metadata
     id="metadata188">
    <rdf:RDF>
      <cc:Work
         rdf:about="">
        <dc:format>image/svg+xml</dc:format>
        <dc:type
           rdf:resource="http://purl.org/dc/dcmitype/StillImage" />
      </cc:Work>
    </rdf:RDF>
  </metadata>
  <defs
     id="defs186" />
  <sodipodi:namedview
     pagecolor="#ffffff"
     bordercolor="#666666"
     borderopacity="1"
     objecttolerance="10"
     gridtolerance="10"
     guidetolerance="10"
     inkscape:pageopacity="0"
     inkscape:pageshadow="2"
     inkscape:window-width="1920"
     inkscape:window-height="1027"
     id="namedview184"
     showgrid="false"
     inkscape:zoom="0.5747364"
     inkscape:cx="538.36463"
     inkscape:cy="326.2007"
     inkscape:window-x="0"
     inkscape:window-y="1024"
     inkscape:window-maximized="1"
     inkscape:current-layer="layer7"
     fit-margin-top="0"
     fit-margin-left="0"
     fit-margin-right="0"
     fit-margin-bottom="0" />
  <text
     font-size="12.8"
     style="font-size:12.80000019px;font-style:normal;font-weight:normal;text-anchor:start;fill:#000000;font-family:sans-serif"
     x="981.61987"
     y="249.91682"
     id="text180">
    <tspan
       x="981.61987"
       y="249.91682"
       id="tspan182" />
  </text>
  <g
     inkscape:groupmode="layer"
     id="layer2"
     inkscape:label="Layer"
     style="display:inline"
     transform="translate(21.619899,19.916818)">
    <g
       transform="translate(0,1.5323786e-6)"
       id="g4">
      <rect
         style="fill:#67edff"
         x="180"
         y="-20"
         width="160"
         height="300"
         id="rect6" />
      <rect
         style="fill:none;stroke:#67edff;stroke-width:0.02"
         x="180"
         y="-20"
         width="160"
         height="300"
         id="rect8" />
    </g>
    <g
       transform="translate(0,1.5323786e-6)"
       id="g10">
      <rect
         style="fill:#67edff"
         x="840"
         y="-20"
         width="240"
         height="300"
         id="rect12" />
      <rect
         style="fill:none;stroke:#67edff;stroke-width:0.02"
         x="840"
         y="-20"
         width="240"
         height="300"
         id="rect14" />
    </g>
    <g
       transform="translate(0,1.5323786e-6)"
       id="g16">
      <rect
         style="fill:#67edff"
         x="440"
         y="-20"
         width="220"
         height="300"
         id="rect18" />
      <rect
         style="fill:none;stroke:#67edff;stroke-width:0.02"
         x="440"
         y="-20"
         width="220"
         height="300"
         id="rect20" />
    </g>
    <g
       transform="translate(0,1.5323786e-6)"
       id="g22">
      <polygon
         style="fill:#ffffff"
         points="750,120 750,105 660,105 660,75 750,75 750,60 840,90 "
         id="polygon24" />
      <polygon
         style="fill:none;stroke:#000000;stroke-width:2"
         points="750,120 750,105 660,105 660,75 750,75 750,60 840,90 "
         id="polygon26" />
      <polygon
         style="fill:none;stroke:#000000;stroke-width:2"
         points="750,120 750,105 660,105 660,75 750,75 750,60 840,90 "
         id="polygon28" />
    </g>
    <g
       transform="translate(0,1.5323786e-6)"
       id="g30">
      <polygon
         style="fill:#ffffff"
         points="390,140 390,125 340,125 340,95 390,95 390,80 440,110 "
         id="polygon32" />
      <polygon
         style="fill:none;stroke:#000000;stroke-width:2"
         points="390,140 390,125 340,125 340,95 390,95 390,80 440,110 "
         id="polygon34" />
      <polygon
         style="fill:none;stroke:#000000;stroke-width:2"
         points="390,140 390,125 340,125 340,95 390,95 390,80 440,110 "
         id="polygon36" />
    </g>
    <g
       transform="translate(0,1.5323786e-6)"
       id="g38">
      <polygon
         style="fill:#ffffff"
         points="390,260 390,245 440,245 440,215 390,215 390,200 340,230 "
         id="polygon40" />
      <polygon
         style="fill:none;stroke:#000000;stroke-width:2"
         points="390,260 390,245 440,245 440,215 390,215 390,200 340,230 "
         id="polygon42" />
      <polygon
         style="fill:none;stroke:#000000;stroke-width:2"
         points="390,260 390,245 440,245 440,215 390,215 390,200 340,230 "
         id="polygon44" />
    </g>
    <g
       transform="translate(0,1.5323786e-6)"
       id="g46">
      <rect
         style="fill:#ffffff"
         x="200"
         y="60"
         width="120"
         height="200"
         id="rect48" />
      <rect
         style="fill:none;stroke:#000000;stroke-width:2"
         x="200"
         y="60"
         width="120"
         height="200"
         id="rect50" />
    </g>
    <g
       transform="translate(0,1.5323786e-6)"
       id="g52">
      <rect
         style="fill:#ffffff"
         x="860"
         y="60"
         width="200"
         height="120"
         id="rect54" />
      <rect
         style="fill:none;stroke:#000000;stroke-width:2"
         x="860"
         y="60"
         width="200"
         height="120"
         id="rect56" />
    </g>
    <g
       transform="translate(0,1.5323786e-6)"
       id="g58">
      <ellipse
         sodipodi:ry="30"
         sodipodi:rx="30"
         sodipodi:cy="90"
         sodipodi:cx="1030"
         d="m 1060,90 c 0,16.56854 -13.4315,30 -30,30 -16.5685,0 -30,-13.43146 -30,-30 0,-16.568542 13.4315,-30 30,-30 16.5685,0 30,13.431458 30,30 z"
         style="fill:#ffffff"
         cx="1030"
         cy="90"
         rx="30"
         ry="30"
         id="ellipse60" />
      <ellipse
         sodipodi:ry="30"
         sodipodi:rx="30"
         sodipodi:cy="90"
         sodipodi:cx="1030"
         d="m 1060,90 c 0,16.56854 -13.4315,30 -30,30 -16.5685,0 -30,-13.43146 -30,-30 0,-16.568542 13.4315,-30 30,-30 16.5685,0 30,13.431458 30,30 z"
         style="fill:none;stroke:#000000;stroke-width:2"
         cx="1030"
         cy="90"
         rx="30"
         ry="30"
         id="ellipse62" />
      <line
         style="fill:none;stroke:#000000;stroke-width:2"
         x1="1030"
         y1="60"
         x2="1030"
         y2="67"
         id="line64" />
      <line
         style="fill:none;stroke:#000000;stroke-width:2"
         x1="1045"
         y1="64.019203"
         x2="1043"
         y2="67.483299"
         id="line66" />
      <line
         style="fill:none;stroke:#000000;stroke-width:2"
         x1="1055.98"
         y1="75"
         x2="1052.52"
         y2="77"
         id="line68" />
      <line
         style="fill:none;stroke:#000000;stroke-width:2"
         x1="1060"
         y1="90"
         x2="1054"
         y2="90"
         id="line70" />
      <line
         style="fill:none;stroke:#000000;stroke-width:2"
         x1="1055.98"
         y1="105"
         x2="1052.52"
         y2="103"
         id="line72" />
      <line
         style="fill:none;stroke:#000000;stroke-width:2"
         x1="1045"
         y1="115.981"
         x2="1043"
         y2="112.517"
         id="line74" />
      <line
         style="fill:none;stroke:#000000;stroke-width:2"
         x1="1030"
         y1="120"
         x2="1030"
         y2="114"
         id="line76" />
      <line
         style="fill:none;stroke:#000000;stroke-width:2"
         x1="1015"
         y1="115.981"
         x2="1017"
         y2="112.517"
         id="line78" />
      <line
         style="fill:none;stroke:#000000;stroke-width:2"
         x1="1004.02"
         y1="105"
         x2="1007.48"
         y2="103"
         id="line80" />
      <line
         style="fill:none;stroke:#000000;stroke-width:2"
         x1="1000"
         y1="90"
         x2="1006"
         y2="90"
         id="line82" />
      <line
         style="fill:none;stroke:#000000;stroke-width:2"
         x1="1004.02"
         y1="75"
         x2="1007.48"
         y2="77"
         id="line84" />
      <line
         style="fill:none;stroke:#000000;stroke-width:2"
         x1="1015"
         y1="64.019203"
         x2="1017"
         y2="67.483299"
         id="line86" />
      <line
         style="fill:none;stroke:#00007f;stroke-width:2"
         x1="1025.61"
         y1="104.345"
         x2="1030"
         y2="90"
         id="line88" />
      <line
         style="fill:none;stroke:#00007f;stroke-width:2"
         x1="1020.24"
         y1="111.925"
         x2="1030"
         y2="90"
         id="line90" />
      <line
         style="fill:none;stroke:#ff0000;stroke-width:0.66666698"
         x1="1024.7"
         y1="114.943"
         x2="1030"
         y2="90"
         id="line92" />
      <ellipse
         sodipodi:ry="2.25"
         sodipodi:rx="2.25"
         sodipodi:cy="90"
         sodipodi:cx="1030"
         d="m 1032.25,90 c 0,1.242641 -1.0074,2.25 -2.25,2.25 -1.2426,0 -2.25,-1.007359 -2.25,-2.25 0,-1.242641 1.0074,-2.25 2.25,-2.25 1.2426,0 2.25,1.007359 2.25,2.25 z"
         style="fill:#ff0000"
         cx="1030"
         cy="90"
         rx="2.25"
         ry="2.25"
         id="ellipse94" />
    </g>
    <g
       transform="translate(0,1.5323786e-6)"
       id="g96">
      <rect
         style="fill:#ffffff"
         x="460"
         y="200"
         width="180"
         height="60"
         id="rect98" />
      <rect
         style="fill:none;stroke:#000000;stroke-width:2"
         x="460"
         y="200"
         width="180"
         height="60"
         id="rect100" />
    </g>
    <g
       transform="translate(0,1.5323786e-6)"
       id="g102">
      <rect
         style="fill:#ffffff"
         x="460"
         y="60"
         width="180"
         height="120"
         id="rect104" />
      <rect
         style="fill:none;stroke:#000000;stroke-width:2"
         x="460"
         y="60"
         width="180"
         height="120"
         id="rect106" />
      <text
         font-size="12.8"
         style="font-size:12.80000019px;font-style:normal;font-weight:normal;text-anchor:middle;fill:#000000;font-family:sans-serif"
         x="550"
         y="123.9"
         id="text108">
        <tspan
           x="550"
           y="123.9"
           id="tspan110" />
      </text>
    </g>
    <g
       transform="translate(0,1.5323786e-6)"
       id="g112">
      <ellipse
         sodipodi:ry="30"
         sodipodi:rx="30"
         sodipodi:cy="90"
         sodipodi:cx="610"
         d="m 640,90 c 0,16.56854 -13.43146,30 -30,30 -16.56854,0 -30,-13.43146 -30,-30 0,-16.568542 13.43146,-30 30,-30 16.56854,0 30,13.431458 30,30 z"
         style="fill:#ffffff"
         cx="610"
         cy="90"
         rx="30"
         ry="30"
         id="ellipse114" />
      <ellipse
         sodipodi:ry="30"
         sodipodi:rx="30"
         sodipodi:cy="90"
         sodipodi:cx="610"
         d="m 640,90 c 0,16.56854 -13.43146,30 -30,30 -16.56854,0 -30,-13.43146 -30,-30 0,-16.568542 13.43146,-30 30,-30 16.56854,0 30,13.431458 30,30 z"
         style="fill:none;stroke:#000000;stroke-width:2"
         cx="610"
         cy="90"
         rx="30"
         ry="30"
         id="ellipse116" />
      <line
         style="fill:none;stroke:#000000;stroke-width:2"
         x1="610"
         y1="60"
         x2="610"
         y2="67"
         id="line118" />
      <line
         style="fill:none;stroke:#000000;stroke-width:2"
         x1="625"
         y1="64.019203"
         x2="623"
         y2="67.483299"
         id="line120" />
      <line
         style="fill:none;stroke:#000000;stroke-width:2"
         x1="635.98102"
         y1="75"
         x2="632.51703"
         y2="77"
         id="line122" />
      <line
         style="fill:none;stroke:#000000;stroke-width:2"
         x1="640"
         y1="90"
         x2="634"
         y2="90"
         id="line124" />
      <line
         style="fill:none;stroke:#000000;stroke-width:2"
         x1="635.98102"
         y1="105"
         x2="632.51703"
         y2="103"
         id="line126" />
      <line
         style="fill:none;stroke:#000000;stroke-width:2"
         x1="625"
         y1="115.981"
         x2="623"
         y2="112.517"
         id="line128" />
      <line
         style="fill:none;stroke:#000000;stroke-width:2"
         x1="610"
         y1="120"
         x2="610"
         y2="114"
         id="line130" />
      <line
         style="fill:none;stroke:#000000;stroke-width:2"
         x1="595"
         y1="115.981"
         x2="597"
         y2="112.517"
         id="line132" />
      <line
         style="fill:none;stroke:#000000;stroke-width:2"
         x1="584.01898"
         y1="105"
         x2="587.48297"
         y2="103"
         id="line134" />
      <line
         style="fill:none;stroke:#000000;stroke-width:2"
         x1="580"
         y1="90"
         x2="586"
         y2="90"
         id="line136" />
      <line
         style="fill:none;stroke:#000000;stroke-width:2"
         x1="584.01898"
         y1="75"
         x2="587.48297"
         y2="77"
         id="line138" />
      <line
         style="fill:none;stroke:#000000;stroke-width:2"
         x1="595"
         y1="64.019203"
         x2="597"
         y2="67.483299"
         id="line140" />
      <line
         style="fill:none;stroke:#00007f;stroke-width:2"
         x1="605.61401"
         y1="104.345"
         x2="610"
         y2="90"
         id="line142" />
      <line
         style="fill:none;stroke:#00007f;stroke-width:2"
         x1="600.23798"
         y1="111.925"
         x2="610"
         y2="90"
         id="line144" />
      <line
         style="fill:none;stroke:#ff0000;stroke-width:0.66666698"
         x1="604.698"
         y1="114.943"
         x2="610"
         y2="90"
         id="line146" />
      <ellipse
         sodipodi:ry="2.25"
         sodipodi:rx="2.25"
         sodipodi:cy="90"
         sodipodi:cx="610"
         d="m 612.25,90 c 0,1.242641 -1.00736,2.25 -2.25,2.25 -1.24264,0 -2.25,-1.007359 -2.25,-2.25 0,-1.242641 1.00736,-2.25 2.25,-2.25 1.24264,0 2.25,1.007359 2.25,2.25 z"
         style="fill:#ff0000"
         cx="610"
         cy="90"
         rx="2.25"
         ry="2.25"
         id="ellipse148" />
    </g>
    <g
       transform="translate(0,1.5323786e-6)"
       id="g150">
      <polygon
         style="fill:#ffffff"
         points="705,131.25 660,155.625 705,180 705,167.812 795,167.812 795,180 840,155.625 795,131.25 795,143.438 705,143.438 "
         id="polygon152" />
      <polygon
         style="fill:none;stroke:#000000;stroke-width:2"
         points="705,131.25 660,155.625 705,180 705,167.812 795,167.812 795,180 840,155.625 795,131.25 795,143.438 705,143.438 "
         id="polygon154" />
      <polygon
         style="fill:none;stroke:#000000;stroke-width:2"
         points="705,131.25 660,155.625 705,180 705,167.812 795,167.812 795,180 840,155.625 795,131.25 795,143.438 705,143.438 "
         id="polygon156" />
    </g>
    <g
       transform="translate(0,1.5323786e-6)"
       id="g158">
      <polygon
         style="fill:#ffffff"
         points="750,260 750,245 840,245 840,215 750,215 750,200 660,230 "
         id="polygon160" />
      <polygon
         style="fill:none;stroke:#000000;stroke-width:2"
         points="750,260 750,245 840,245 840,215 750,215 750,200 660,230 "
         id="polygon162" />
      <polygon
         style="fill:none;stroke:#000000;stroke-width:2"
         points="750,260 750,245 840,245 840,215 750,215 750,200 660,230 "
         id="polygon164" />
    </g>
    <g
       transform="translate(0,1.5323786e-6)"
       id="g166">
      <rect
         style="fill:#ffffff"
         x="860"
         y="200"
         width="200"
         height="60"
         id="rect168" />
      <rect
         style="fill:none;stroke:#000000;stroke-width:2"
         x="860"
         y="200"
         width="200"
         height="60"
         id="rect170" />
    </g>
    <g
       transform="translate(0,1.5323786e-6)"
       id="g172">
      <polygon
         style="fill:#ffffff"
         points="300,129.25 300,211.25 218,211.25 218,108.75 279.5,108.75 "
         id="polygon174" />
      <polygon
         style="fill:none;stroke:#000000;stroke-width:2"
         points="300,129.25 300,211.25 218,211.25 218,108.75 279.5,108.75 "
         id="polygon176" />
      <polyline
         style="fill:none;stroke:#000000;stroke-width:2"
         points="279.5,108.75 279.5,129.25 300,129.25 300,129.25 "
         id="polyline178" />
    </g>
  </g>
  <g
     inkscape:groupmode="layer"
     id="layer1"
     inkscape:label="Text"
     style="display:inline"
     transform="translate(21.619899,19.916818)">
    <text
       xml:space="preserve"
       style="font-size:20.3200016px;font-style:normal;font-weight:bold;text-align:center;line-height:125%;letter-spacing:0px;word-spacing:0px;text-anchor:middle;fill:#000000;fill-opacity:1;stroke:none;font-family:Sans;-inkscape-font-specification:Sans Bold"
       x="259.69913"
       y="19.745413"
       id="text3165"
       sodipodi:linespacing="125%"><tspan
         sodipodi:role="line"
         id="tspan3167"
         x="259.69913"
         y="19.745413">Zielsystem</tspan></text>
    <text
       xml:space="preserve"
       style="font-size:20.3200016px;font-style:normal;font-weight:bold;text-align:center;line-height:125%;letter-spacing:0px;word-spacing:0px;text-anchor:middle;fill:#000000;fill-opacity:1;stroke:none;font-family:Sans;-inkscape-font-specification:Sans Bold"
       x="549.4165"
       y="19.745415"
       id="text3165-1"
       sodipodi:linespacing="125%"><tspan
         sodipodi:role="line"
         id="tspan3167-0"
         x="549.4165"
         y="19.745415">Carambola</tspan></text>
    <text
       xml:space="preserve"
       style="font-size:20.3200016px;font-style:normal;font-weight:bold;text-align:center;line-height:125%;letter-spacing:0px;word-spacing:0px;text-anchor:middle;fill:#000000;fill-opacity:1;stroke:none;font-family:Sans;-inkscape-font-specification:Sans Bold"
       x="956.98499"
       y="19.745415"
       id="text3165-14"
       sodipodi:linespacing="125%"><tspan
         sodipodi:role="line"
         id="tspan3167-01"
         x="956.98499"
         y="19.745415">Entwicklersystem</tspan></text>
    <text
       xml:space="preserve"
       style="font-size:15.24000072px;font-style:normal;font-weight:normal;text-align:center;line-height:125%;letter-spacing:0px;word-spacing:0px;text-anchor:middle;fill:#000000;fill-opacity:1;stroke:none;font-family:Sans"
       x="258.46622"
       y="162.14885"
       id="text3233"
       sodipodi:linespacing="125%"><tspan
         sodipodi:role="line"
         id="tspan3235"
         x="258.46622"
         y="162.14885">Firmware</tspan></text>
    <text
       xml:space="preserve"
       style="font-size:15.24000072px;font-style:normal;font-weight:normal;text-align:center;line-height:125%;letter-spacing:0px;word-spacing:0px;text-anchor:middle;fill:#000000;fill-opacity:1;stroke:none;display:inline;font-family:Sans"
       x="531.23419"
       y="231.87685"
       id="text3233-9"
       sodipodi:linespacing="125%"><tspan
         sodipodi:role="line"
         id="tspan3235-3"
         x="531.23419"
         y="231.87685">OpenOCD</tspan></text>
    <text
       xml:space="preserve"
       style="font-size:15.24000072px;font-style:normal;font-weight:normal;text-align:center;line-height:125%;letter-spacing:0px;word-spacing:0px;text-anchor:middle;fill:#000000;fill-opacity:1;stroke:none;display:inline;font-family:Sans"
       x="526.32373"
       y="124.82873"
       id="text3233-0"
       sodipodi:linespacing="125%"><tspan
         sodipodi:role="line"
         id="tspan3235-0"
         x="526.32373"
         y="124.82873">FreeJTAG</tspan></text>
    <text
       xml:space="preserve"
       style="font-size:15.24000072px;font-style:normal;font-weight:normal;text-align:center;line-height:125%;letter-spacing:0px;word-spacing:0px;text-anchor:middle;fill:#000000;fill-opacity:1;stroke:none;display:inline;font-family:Sans"
       x="414.36517"
       y="234.82312"
       id="text3233-7"
       sodipodi:linespacing="125%"><tspan
         sodipodi:role="line"
         id="tspan3235-4"
         x="414.36517"
         y="234.82312">JTAG</tspan></text>
    <text
       xml:space="preserve"
       style="font-size:15.24000072px;font-style:normal;font-weight:normal;text-align:center;line-height:125%;letter-spacing:0px;word-spacing:0px;text-anchor:middle;fill:#000000;fill-opacity:1;stroke:none;display:inline;font-family:Sans"
       x="366.24261"
       y="115.0078"
       id="text3233-91"
       sodipodi:linespacing="125%"><tspan
         sodipodi:role="line"
         id="tspan3235-2"
         x="366.24261"
         y="115.0078">UART</tspan></text>
    <text
       xml:space="preserve"
       style="font-size:15.24000072px;font-style:normal;font-weight:normal;text-align:start;line-height:125%;letter-spacing:-0.14255103px;word-spacing:0px;text-anchor:start;fill:#000000;fill-opacity:1;stroke:none;display:inline;font-family:Sans"
       x="662.37439"
       y="94.383858"
       id="text3233-2"
       sodipodi:linespacing="125%"><tspan
         sodipodi:role="line"
         id="tspan3235-7"
         x="662.37439"
         y="94.383858"
         dx="0 0 0 0 0 0 0 0 0 0 0">Zeitstempel+Daten</tspan></text>
    <text
       xml:space="preserve"
       style="font-size:15.24000072px;font-style:normal;font-weight:normal;text-align:center;line-height:125%;letter-spacing:0px;word-spacing:0px;text-anchor:middle;fill:#000000;fill-opacity:1;stroke:none;display:inline;font-family:Sans"
       x="750.24091"
       y="160.18407"
       id="text3233-4"
       sodipodi:linespacing="125%"><tspan
         sodipodi:role="line"
         id="tspan3235-1"
         x="750.24091"
         y="160.18407">Zeit Sync</tspan></text>
    <text
       xml:space="preserve"
       style="font-size:15.24000072px;font-style:normal;font-weight:normal;text-align:center;line-height:125%;letter-spacing:0px;word-spacing:0px;text-anchor:middle;fill:#000000;fill-opacity:1;stroke:none;display:inline;font-family:Sans"
       x="812.11279"
       y="235.80522"
       id="text3233-09"
       sodipodi:linespacing="125%"><tspan
         sodipodi:role="line"
         id="tspan3235-48"
         x="812.11279"
         y="235.80522">GDB</tspan></text>
    <text
       xml:space="preserve"
       style="font-size:15.24000072px;font-style:normal;font-weight:normal;text-align:center;line-height:125%;letter-spacing:0px;word-spacing:0px;text-anchor:middle;fill:#000000;fill-opacity:1;stroke:none;display:inline;font-family:Sans"
       x="935.85645"
       y="125.81081"
       id="text3233-08"
       sodipodi:linespacing="125%"><tspan
         sodipodi:role="line"
         id="tspan3235-6"
         x="935.85645"
         y="125.81081">The Kraken</tspan></text>
    <text
       xml:space="preserve"
       style="font-size:15.24000072px;font-style:normal;font-weight:normal;text-align:center;line-height:125%;letter-spacing:0px;word-spacing:0px;text-anchor:middle;fill:#000000;fill-opacity:1;stroke:none;display:inline;font-family:Sans"
       x="956.48035"
       y="238.75148"
       id="text3233-8"
       sodipodi:linespacing="125%"><tspan
         sodipodi:role="line"
         id="tspan3235-35"
         x="956.48035"
         y="238.75148">IDE</tspan></text>
  </g>
  <g
     inkscape:groupmode="layer"
     id="layer7"
     inkscape:label="grey"
     style="display:inline"
     transform="translate(21.619899,19.916818)">
    <path
       style="opacity:0.4;fill:#000000;fill-opacity:1;stroke:#000000;stroke-width:0.92043233;stroke-linejoin:miter;stroke-miterlimit:4;stroke-opacity:1;stroke-dashoffset:0;display:inline"
       d="m 158.8403,-39.456602 0,345.513822 951.1823,0 0,-345.513822 z m 180.909,80.656862 750.4491,0 0,149.7389 -750.4491,0 z"
       id="rect5767"
       inkscape:connector-curvature="0"
       sodipodi:nodetypes="cccccccccc" />
  </g>
</svg>
